<svg aria-hidden="true" style="position: absolute; width: 0; height: 0; overflow: hidden;" version="1.1" xmlns="http://www.w3.org/2000/svg" xmlns:xlink="http://www.w3.org/1999/xlink">
<defs>
<symbol id="icon-smartphone" viewBox="0 0 64 32">
<path fill="#757575" style="fill: var(--color1, #757575)" d="M1.813 0h-1.493c-0.176 0-0.32 0.144-0.32 0.32v2.773c0 0.176 0.144 0.32 0.32 0.32h1.493c0.176 0 0.32-0.144 0.32-0.32v-2.773c0-0.176-0.144-0.32-0.32-0.32zM0.32 0.213h1.493c0.059 0 0.107 0.048 0.107 0.107v0 2.24h-1.707v-2.24c0-0.059 0.048-0.107 0.107-0.107v0zM1.813 3.2h-1.493c-0.059 0-0.107-0.048-0.107-0.107v0-0.32h1.707v0.32c0 0.059-0.048 0.107-0.107 0.107v0z"></path>
<path fill="#757575" style="fill: var(--color1, #757575)" d="M0.502 2.931c0.019 0.017 0.031 0.042 0.031 0.070s-0.012 0.053-0.031 0.070l-0 0c-0.020 0.018-0.046 0.029-0.076 0.029s-0.056-0.011-0.076-0.029l0 0c-0.019-0.017-0.031-0.042-0.031-0.070s0.012-0.053 0.031-0.070l0-0c0.020-0.018 0.046-0.029 0.076-0.029s0.056 0.011 0.076 0.029l-0-0z"></path>
</symbol>
<symbol id="icon-Clientfifth" viewBox="0 0 64 32">
<path fill="#afb1b8" style="fill: var(--color2, #afb1b8)" d="M12.904 13.073c0.049 0.061 0.075 0.137 0.074 0.215 0 0.005 0 0.011 0 0.017 0 0.102-0.044 0.193-0.115 0.256l-0 0c-0.095 0.072-0.213 0.108-0.332 0.099h-0.584v-1.366h0.572c0.010-0.001 0.021-0.001 0.032-0.001 0.107 0 0.206 0.034 0.286 0.093l-0.001-0.001c0.068 0.058 0.111 0.143 0.111 0.239 0 0.006-0 0.012-0 0.017l0-0.001c0.003 0.075-0.020 0.149-0.066 0.209-0.045 0.054-0.106 0.092-0.174 0.107 0.078 0.014 0.148 0.055 0.198 0.117zM12.219 12.866h0.245c0.055 0.004 0.111-0.012 0.156-0.045 0.033-0.030 0.053-0.073 0.053-0.12 0-0.005-0-0.009-0.001-0.014l0 0.001c0-0.003 0-0.008 0-0.012 0-0.048-0.020-0.091-0.052-0.122l-0-0c-0.039-0.029-0.088-0.047-0.141-0.047-0.007 0-0.013 0-0.020 0.001l0.001-0h-0.241v0.358zM12.643 13.39c0.036-0.031 0.058-0.077 0.058-0.128 0-0.004-0-0.008-0-0.011l0 0.001c0-0.003 0-0.006 0-0.010 0-0.052-0.023-0.099-0.059-0.13l-0-0c-0.041-0.031-0.094-0.050-0.15-0.050-0.006 0-0.011 0-0.017 0.001l0.001-0h-0.256v0.376h0.26c0.058 0.003 0.116-0.013 0.164-0.047zM14.074 13.66l-0.319-0.534h-0.12v0.534h-0.274v-1.366h0.518c0.011-0.001 0.023-0.001 0.036-0.001 0.124 0 0.238 0.044 0.326 0.118l-0.001-0.001c0.077 0.079 0.124 0.186 0.124 0.305 0 0.098-0.032 0.188-0.087 0.261l0.001-0.001c-0.064 0.074-0.151 0.123-0.247 0.139l0.339 0.546h-0.298zM13.636 12.94h0.224c0.156 0 0.233-0.069 0.233-0.207 0-0.003 0-0.008 0-0.012 0-0.055-0.022-0.105-0.058-0.142l0 0c-0.042-0.035-0.096-0.056-0.155-0.056-0.007 0-0.015 0-0.022 0.001l0.001-0h-0.227l0.003 0.416zM15.571 13.385h-0.546l-0.096 0.275h-0.287l0.501-1.351h0.31l0.499 1.351h-0.287l-0.094-0.275zM15.498 13.178l-0.199-0.577-0.199 0.577h0.399zM17.446 13.66h-0.272l-0.61-0.929v0.929h-0.271v-1.366h0.271l0.61 0.934v-0.934h0.272v1.366zM18.997 13.333c-0.057 0.103-0.141 0.186-0.243 0.24l-0.003 0.002c-0.118 0.060-0.25 0.090-0.382 0.086h-0.484v-1.366h0.484c0.006-0 0.014-0 0.021-0 0.132 0 0.256 0.031 0.366 0.087l-0.005-0.002c0.104 0.052 0.19 0.136 0.246 0.238 0.054 0.104 0.085 0.228 0.085 0.358s-0.031 0.254-0.087 0.363l0.002-0.005zM18.686 13.3c0.075-0.087 0.12-0.201 0.12-0.326s-0.046-0.239-0.121-0.327l0.001 0.001c-0.083-0.073-0.192-0.117-0.311-0.117-0.010 0-0.020 0-0.031 0.001l0.001-0h-0.189v0.884h0.189c0.009 0.001 0.019 0.001 0.029 0.001 0.119 0 0.228-0.044 0.311-0.117l-0.001 0zM15.741 4.693s3.51 1.33 3.435 3.255v3.256s-3.507-1.331-3.434-3.256l-0.002-3.255zM22.304 10.443c0.628-0.439 1.387-0.735 2.209-0.823l0.021-0.002v-1.019c-0.938 0.37-1.703 1.011-2.219 1.826l-0.011 0.019z"></path>
<path fill="#afb1b8" style="fill: var(--color2, #afb1b8)" d="M21.905 10.75c0.548-1.092 1.47-1.93 2.595-2.354l0.033-0.011v-2.937s-4.998 1.895-4.893 4.636v4.636s0.223-0.085 0.573-0.244c0-0.148 0-0.298 0.016-0.448 0.11-1.318 0.734-2.471 1.669-3.273l0.006-0.005z"></path>
<path fill="#afb1b8" style="fill: var(--color2, #afb1b8)" d="M21.43 12.472c0.026-0.322 0.085-0.64 0.175-0.949-0.639 0.752-1.035 1.728-1.058 2.795l-0 0.005c0.407-0.196 0.722-0.365 1.030-0.546l-0.068 0.037c-0.060-0.284-0.094-0.611-0.094-0.946 0-0.139 0.006-0.277 0.018-0.414l-0.001 0.018zM21.629 12.489c-0.010 0.113-0.015 0.243-0.015 0.376 0 0.297 0.028 0.587 0.082 0.869l-0.005-0.029c1.366-0.82 2.9-2.088 2.841-3.62v-0.134c-1.017 0.118-1.913 0.56-2.6 1.22l0.001-0.001c-0.157 0.387-0.265 0.835-0.304 1.303l-0.001 0.016z"></path>
</symbol>
<symbol id="icon-Clientfirst" viewBox="0 0 64 32">
<path fill="#afb1b8" style="fill: var(--color2, #afb1b8)" d="M14.72 4.267l1.559 1.476h4.349v4.117l1.559 1.476v-7.069h-7.467z"></path>
<path fill="#afb1b8" style="fill: var(--color2, #afb1b8)" d="M13.44 5.68v6.867h7.253v-2.729l-4.368-4.136-2.885-0.002zM19.312 11.543h-4.724v-4.618h0.334v4.306h4.39v0.313zM15.529 13.821l0.175-0.359h0.146l-0.255 0.479v0.279h-0.132v-0.279l-0.255-0.479h0.146l0.175 0.359zM16.278 14.043h-0.294l-0.061 0.177h-0.137l0.286-0.758h0.118l0.287 0.758h-0.138l-0.062-0.177zM16.021 13.937h0.22l-0.11-0.315-0.11 0.315zM16.797 14.015c0-0.035 0.010-0.067 0.029-0.096s0.057-0.064 0.113-0.105c-0.023-0.028-0.044-0.059-0.061-0.092l-0.001-0.003c-0.011-0.022-0.017-0.048-0.017-0.075v-0c0-0.060 0.018-0.106 0.054-0.141s0.085-0.052 0.146-0.052c0.055 0 0.1 0.016 0.135 0.049s0.053 0.073 0.053 0.12c0 0 0 0.001 0 0.001 0 0.032-0.009 0.062-0.025 0.087l0-0.001c-0.021 0.032-0.047 0.058-0.078 0.079l-0.001 0.001-0.052 0.038 0.147 0.173c0.021-0.042 0.032-0.088 0.032-0.139h0.11c0 0.093-0.022 0.17-0.066 0.23l0.111 0.132h-0.147l-0.043-0.051c-0.051 0.038-0.116 0.061-0.186 0.061-0.003 0-0.006-0-0.008-0h0c-0.075 0-0.135-0.020-0.18-0.060-0.041-0.037-0.067-0.090-0.067-0.149 0-0.002 0-0.005 0-0.007v0zM17.048 14.129c0.043 0 0.083-0.014 0.12-0.043l-0.166-0.195-0.016 0.012c-0.042 0.032-0.063 0.068-0.063 0.108 0 0.035 0.011 0.064 0.034 0.085 0.022 0.020 0.052 0.033 0.085 0.033 0.002 0 0.004-0 0.006-0h-0zM16.978 13.64c0 0.029 0.018 0.066 0.054 0.11l0.058-0.039 0.016-0.013c0.020-0.017 0.032-0.043 0.032-0.071 0-0.001 0-0.002-0-0.003v0c0-0 0-0 0-0.001 0-0.020-0.009-0.037-0.022-0.050l-0-0c-0.014-0.013-0.033-0.021-0.054-0.021-0.001 0-0.002 0-0.003 0h0c-0.001-0-0.002-0-0.003-0-0.022 0-0.042 0.010-0.056 0.025l-0 0c-0.014 0.016-0.022 0.037-0.022 0.060 0 0.001 0 0.002 0 0.003v-0zM18.356 13.973c-0.008 0.081-0.038 0.144-0.090 0.189s-0.121 0.068-0.208 0.068c-0.060 0-0.114-0.014-0.16-0.043-0.046-0.030-0.083-0.071-0.105-0.121l-0.001-0.002c-0.025-0.053-0.039-0.116-0.039-0.181 0-0.001 0-0.002 0-0.003v0-0.071c0-0.071 0.013-0.134 0.038-0.189s0.062-0.097 0.109-0.126c0.048-0.030 0.102-0.044 0.165-0.044 0.084 0 0.151 0.023 0.202 0.068s0.081 0.11 0.089 0.193h-0.131c-0.006-0.054-0.022-0.094-0.048-0.118s-0.063-0.036-0.112-0.036c-0.057 0-0.101 0.021-0.132 0.063s-0.046 0.103-0.047 0.184v0.067c0 0.082 0.015 0.144 0.044 0.188s0.073 0.065 0.129 0.065c0.052 0 0.091-0.012 0.117-0.035s0.043-0.062 0.049-0.116h0.131zM19.079 13.86c0 0.074-0.013 0.14-0.038 0.196s-0.063 0.099-0.11 0.129c-0.048 0.030-0.102 0.045-0.165 0.045s-0.116-0.015-0.164-0.045c-0.049-0.031-0.087-0.075-0.111-0.127l-0.001-0.002c-0.025-0.054-0.040-0.118-0.040-0.185 0-0.002 0-0.005 0-0.008v0-0.043c0-0.074 0.013-0.139 0.039-0.196s0.063-0.1 0.111-0.13c0.048-0.030 0.103-0.045 0.165-0.045s0.116 0.015 0.164 0.045c0.048 0.030 0.085 0.072 0.111 0.128s0.039 0.121 0.039 0.195v0.042zM18.947 13.821c0-0.084-0.016-0.148-0.048-0.193-0.028-0.041-0.075-0.067-0.128-0.067-0.002 0-0.005 0-0.007 0h0c-0.002-0-0.004-0-0.006-0-0.053 0-0.1 0.026-0.128 0.067l-0 0.001c-0.032 0.044-0.048 0.108-0.049 0.189v0.044c0 0.083 0.016 0.148 0.049 0.193s0.078 0.068 0.135 0.068c0.058 0 0.103-0.022 0.134-0.067s0.047-0.109 0.047-0.195v-0.039z"></path>
</symbol>
<symbol id="icon-Clientfourth" viewBox="0 0 64 32">
<path fill="#2196f3" style="fill: var(--color3, #2196f3)" d="M12.246 7.857h-0.001c-0.483 0-0.874 0.381-0.874 0.852v0.001c0 0.47 0.391 0.852 0.874 0.852h0.001c0.483 0 0.874-0.381 0.874-0.852v-0.001c0-0.47-0.391-0.851-0.874-0.851zM18.696 7.585c-0.002-0.653-0.268-1.279-0.742-1.741s-1.116-0.722-1.786-0.724c-0.671 0.001-1.313 0.261-1.788 0.723s-0.741 1.088-0.742 1.742v3.602s5.058-0.549 5.059-3.602v-0.001zM9.6 12.37c0.002 0.476 0.2 0.904 0.516 1.211l0 0c0.321 0.311 0.76 0.504 1.243 0.504h0c0.483-0 0.922-0.192 1.243-0.504l-0 0c0.317-0.307 0.514-0.736 0.517-1.211v-2.507s-3.52 0.383-3.52 2.506zM11.36 12.819c-0 0-0.001 0-0.001 0-0.095 0-0.183-0.028-0.257-0.077l0.002 0.001c-0.075-0.049-0.133-0.118-0.169-0.199l-0.001-0.003c-0.022-0.051-0.035-0.11-0.035-0.172 0-0.031 0.003-0.061 0.009-0.090l-0.001 0.003c0.018-0.087 0.062-0.167 0.126-0.23 0.063-0.061 0.143-0.105 0.233-0.122l0.003-0.001c0.089-0.018 0.182-0.009 0.266 0.026s0.156 0.092 0.207 0.165c0.049 0.070 0.078 0.157 0.078 0.25 0 0.062-0.013 0.121-0.036 0.175l0.001-0.003c-0.023 0.055-0.057 0.105-0.1 0.146s-0.094 0.075-0.15 0.098c-0.052 0.022-0.113 0.034-0.177 0.034-0 0-0 0-0 0v0-0.002zM14.953 12.54h-0.36v0.372h-0.188v-0.91h0.593v0.152h-0.405v0.235h0.36v0.151zM15.854 12.477c0 0.090-0.016 0.168-0.048 0.236s-0.077 0.119-0.136 0.156c-0.056 0.035-0.123 0.055-0.195 0.055-0.002 0-0.005-0-0.007-0h0c-0.003 0-0.007 0-0.011 0-0.144 0-0.269-0.085-0.327-0.207l-0.001-0.002c-0.031-0.066-0.050-0.143-0.050-0.225 0-0.003 0-0.005 0-0.008v0-0.045c0-0.090 0.016-0.169 0.048-0.236s0.078-0.121 0.137-0.157c0.059-0.037 0.127-0.055 0.203-0.055s0.143 0.018 0.202 0.055c0.059 0.036 0.105 0.089 0.137 0.157s0.049 0.147 0.049 0.236v0.041zM15.664 12.436c0-0.095-0.017-0.168-0.051-0.218-0.030-0.045-0.081-0.074-0.139-0.074-0.003 0-0.005 0-0.008 0h0c-0.002-0-0.004-0-0.007-0-0.057 0-0.108 0.029-0.138 0.073l-0 0.001c-0.034 0.049-0.052 0.12-0.052 0.215v0.044c0 0.093 0.017 0.165 0.051 0.216s0.083 0.077 0.147 0.077c0.002 0 0.005 0 0.007 0 0.057 0 0.108-0.029 0.137-0.073l0-0.001c0.034-0.050 0.051-0.122 0.051-0.216v-0.044zM16.462 12.673c0-0.002 0-0.003 0-0.005 0-0.031-0.015-0.058-0.037-0.076l-0-0c-0.025-0.019-0.070-0.039-0.135-0.060-0.060-0.019-0.111-0.040-0.16-0.065l0.005 0.003c-0.103-0.056-0.155-0.131-0.155-0.226 0-0.049 0.014-0.093 0.041-0.131s0.068-0.069 0.119-0.091c0.052-0.022 0.11-0.032 0.175-0.032s0.123 0.012 0.174 0.036c0.051 0.023 0.090 0.057 0.118 0.099s0.043 0.092 0.043 0.146h-0.188c0-0.042-0.013-0.074-0.039-0.097s-0.063-0.035-0.111-0.035c-0.046 0-0.081 0.010-0.107 0.029-0.023 0.017-0.038 0.044-0.038 0.074 0 0.001 0 0.002 0 0.002v-0c0 0.029 0.015 0.054 0.044 0.074s0.074 0.039 0.132 0.056c0.107 0.032 0.184 0.072 0.233 0.119s0.073 0.107 0.073 0.177c0 0.079-0.030 0.141-0.089 0.186s-0.14 0.067-0.241 0.067c-0.070 0-0.134-0.013-0.191-0.038-0.054-0.023-0.099-0.059-0.131-0.105l-0.001-0.001c-0.028-0.042-0.045-0.094-0.045-0.15 0-0.002 0-0.004 0-0.006v0h0.188c0 0.1 0.060 0.151 0.18 0.151 0.045 0 0.079-0.009 0.105-0.027 0.023-0.016 0.037-0.043 0.037-0.073 0-0.001-0-0.003-0-0.004v0zM17.462 12.154h-0.279v0.758h-0.188v-0.758h-0.275v-0.152h0.741v0.152zM18.117 12.518h-0.36v0.244h0.423v0.151h-0.61v-0.91h0.609v0.152h-0.421v0.217h0.36v0.147zM18.627 12.579h-0.149v0.333h-0.188v-0.91h0.338c0.108 0 0.19 0.024 0.249 0.072s0.087 0.116 0.087 0.203c0 0.062-0.014 0.114-0.041 0.156-0.030 0.044-0.072 0.078-0.12 0.098l-0.002 0.001 0.197 0.372v0.009h-0.201l-0.171-0.333zM18.477 12.427h0.151c0.047 0 0.083-0.012 0.109-0.036 0.024-0.024 0.039-0.056 0.039-0.093 0-0.002-0-0.005-0-0.007v0c0-0.043-0.012-0.077-0.037-0.101s-0.061-0.037-0.112-0.037h-0.151v0.273zM19.614 12.591v0.321h-0.188v-0.91h0.355c0.068 0 0.128 0.012 0.18 0.038s0.092 0.061 0.12 0.107c0.028 0.046 0.042 0.098 0.042 0.157 0 0.089-0.030 0.16-0.092 0.211s-0.145 0.077-0.253 0.077h-0.164zM19.614 12.439h0.167c0.049 0 0.087-0.012 0.113-0.035s0.039-0.057 0.039-0.1c0-0.002 0-0.004 0-0.007 0-0.039-0.015-0.075-0.040-0.102l0 0c-0.026-0.028-0.063-0.042-0.109-0.043h-0.172v0.286zM20.8 12.518h-0.36v0.244h0.422v0.151h-0.61v-0.91h0.609v0.152h-0.421v0.217h0.36v0.147zM21.67 12.154h-0.279v0.758h-0.188v-0.758h-0.275v-0.152h0.741v0.152zM22.325 12.518h-0.36v0.244h0.423v0.151h-0.61v-0.91h0.609v0.152h-0.421v0.217h0.36v0.147zM22.834 12.579h-0.149v0.333h-0.188v-0.91h0.338c0.108 0 0.191 0.024 0.249 0.072s0.087 0.116 0.087 0.203c0 0.062-0.013 0.114-0.041 0.156-0.030 0.044-0.072 0.078-0.12 0.098l-0.002 0.001 0.197 0.372v0.009h-0.201l-0.171-0.333zM22.685 12.427h0.151c0.047 0 0.084-0.012 0.109-0.036 0.024-0.024 0.039-0.056 0.039-0.093 0-0.002-0-0.005-0-0.007v0c0-0.043-0.012-0.077-0.037-0.101s-0.061-0.037-0.112-0.037h-0.151v0.273zM23.787 12.673c0-0.002 0-0.003 0-0.005 0-0.031-0.015-0.058-0.037-0.076l-0-0c-0.025-0.019-0.070-0.039-0.135-0.060-0.060-0.019-0.111-0.040-0.16-0.065l0.005 0.003c-0.103-0.056-0.155-0.131-0.155-0.226 0-0.049 0.014-0.093 0.041-0.131s0.068-0.069 0.119-0.091c0.052-0.022 0.11-0.032 0.175-0.032s0.123 0.012 0.174 0.036c0.051 0.023 0.090 0.057 0.118 0.099s0.042 0.092 0.042 0.146h-0.188c0-0.042-0.013-0.074-0.039-0.097s-0.063-0.035-0.111-0.035c-0.046 0-0.081 0.010-0.107 0.029-0.023 0.017-0.038 0.044-0.038 0.074 0 0.001 0 0.002 0 0.002v-0c0 0.029 0.015 0.054 0.044 0.074s0.074 0.039 0.132 0.056c0.107 0.032 0.184 0.072 0.233 0.119s0.073 0.107 0.073 0.177c0 0.079-0.030 0.141-0.089 0.186s-0.14 0.067-0.241 0.067c-0.002 0-0.004 0-0.006 0-0.067 0-0.131-0.014-0.188-0.039l0.003 0.001c-0.054-0.023-0.099-0.059-0.131-0.105l-0.001-0.001c-0.028-0.042-0.045-0.094-0.045-0.149 0-0.002 0-0.004 0-0.006v0h0.188c0 0.1 0.060 0.151 0.18 0.151 0.045 0 0.079-0.009 0.104-0.027 0.023-0.016 0.038-0.043 0.038-0.073 0-0.001-0-0.003-0-0.004v0z"></path>
</symbol>
<symbol id="icon-Clientsecond" viewBox="0 0 64 32">
<path fill="#afb1b8" style="fill: var(--color2, #afb1b8)" d="M17.488 4.679h0.029c0.054 0 0.112 0.006 0.17 0.010 0.255 0.018 0.507 0.056 0.756 0.114v-0.611c-0.256-0.064-0.517-0.106-0.78-0.124-0.088-0.007-0.198-0.012-0.308-0.015l-0.007-0h-0.091c-0.528 0.002-1.054 0.070-1.565 0.202-0.582 0.145-1.142 0.373-1.661 0.675v6.058c0.455-0.253 0.982-0.464 1.536-0.607l0.047-0.010c0.389-0.104 0.844-0.177 1.31-0.203l0.018-0.001h0.018c0.075-0.004 0.15-0.006 0.227-0.006v-0.621c-0.617 0.008-1.211 0.091-1.778 0.241l0.051-0.011c-0.209 0.054-0.411 0.113-0.6 0.178l-0.216 0.073v-4.724l0.092-0.044c0.655-0.318 1.42-0.524 2.227-0.572l0.016-0.001c0.003-0 0.006-0 0.010-0s0.007 0 0.010 0l-0-0c0.086-0.004 0.172-0.006 0.257-0.006h0.097c0.045 0.001 0.090 0.002 0.134 0.005z"></path>
<path fill="#afb1b8" style="fill: var(--color2, #afb1b8)" d="M19.010 5.319c-0.002 0-0.003 0-0.005 0-0.317 0-0.628-0.027-0.931-0.078l0.033 0.005c-0.096-0.016-0.191-0.036-0.282-0.057v5.989c0.388 0.096 0.787 0.143 1.187 0.14 0.557-0.002 1.096-0.076 1.61-0.211l-0.045 0.010c0.63-0.16 1.183-0.391 1.691-0.692l-0.030 0.016v-5.95c-0.455 0.252-0.981 0.464-1.535 0.607l-0.047 0.010c-0.538 0.138-1.090 0.209-1.645 0.211zM21.405 5.423l0.216-0.073v4.725l-0.092 0.045c-0.313 0.153-0.68 0.289-1.063 0.388l-0.041 0.009c-0.461 0.119-0.936 0.181-1.412 0.183-0.142 0-0.284-0.006-0.421-0.018l-0.148-0.013v-4.859l0.172 0.012c0.114 0.008 0.247 0.012 0.38 0.012 0.005 0 0.011 0 0.016-0h-0.001c0.605-0.002 1.207-0.079 1.793-0.23 0.201-0.053 0.401-0.113 0.6-0.18zM14.451 13.059c-0.058-0.060-0.139-0.097-0.229-0.097-0.004 0-0.008 0-0.012 0l0.001-0c-0.001-0-0.003-0-0.005-0-0.048 0-0.094 0.010-0.136 0.027l0.002-0.001c-0.082 0.033-0.146 0.097-0.177 0.178l-0.001 0.002c-0.017 0.043-0.025 0.088-0.025 0.134v0.809c-0.002 0.057 0.009 0.114 0.032 0.166 0.019 0.042 0.047 0.079 0.081 0.109 0.032 0.027 0.070 0.047 0.111 0.058 0.039 0.011 0.080 0.017 0.121 0.017 0.045 0 0.090-0.009 0.131-0.028 0.121-0.054 0.205-0.174 0.205-0.313v-0.090h-0.212v0.072c0 0.001 0 0.003 0 0.005 0 0.024-0.005 0.047-0.013 0.068l0-0.001c-0.007 0.018-0.018 0.033-0.031 0.046l-0 0c-0.024 0.019-0.055 0.030-0.088 0.031h-0c-0.004 0-0.008 0.001-0.012 0.001-0.036 0-0.067-0.017-0.087-0.044l-0-0c-0.018-0.029-0.028-0.063-0.028-0.1 0-0.003 0-0.006 0-0.008v0-0.755c-0.001-0.042 0.008-0.083 0.026-0.121 0.020-0.030 0.053-0.050 0.091-0.050 0.004 0 0.009 0 0.013 0.001l-0.001-0c0.001-0 0.003-0 0.004-0 0.037 0 0.070 0.018 0.090 0.045l0 0c0.022 0.029 0.035 0.065 0.035 0.104 0 0.002-0 0.003-0 0.005v-0 0.070h0.21v-0.083c0-0.001 0-0.002 0-0.004 0-0.050-0.009-0.097-0.027-0.141l0.001 0.003c-0.017-0.044-0.041-0.082-0.071-0.114l0 0zM15.708 13.050c-0.065-0.055-0.149-0.088-0.241-0.089h-0c-0.043 0-0.086 0.008-0.126 0.023-0.087 0.031-0.156 0.096-0.193 0.177l-0.001 0.002c-0.021 0.049-0.032 0.103-0.031 0.157v0.776c-0.001 0.055 0.009 0.109 0.031 0.159 0.019 0.042 0.047 0.079 0.082 0.108 0.032 0.030 0.070 0.053 0.112 0.068s0.083 0.023 0.126 0.023c0.092-0 0.177-0.035 0.241-0.091l-0 0c0.034-0.030 0.061-0.067 0.080-0.108 0.022-0.050 0.032-0.105 0.031-0.159v-0.776c0-0.002 0-0.005 0-0.007 0-0.054-0.011-0.105-0.032-0.152l0.001 0.002c-0.020-0.044-0.047-0.082-0.080-0.113l-0-0zM15.609 14.096c0 0.004 0.001 0.008 0.001 0.012 0 0.039-0.016 0.075-0.043 0.1l-0 0c-0.027 0.023-0.062 0.036-0.1 0.036s-0.073-0.014-0.1-0.036l0 0c-0.026-0.025-0.043-0.061-0.043-0.1 0-0.004 0-0.009 0.001-0.013l-0 0.001v-0.776c-0-0.004-0.001-0.008-0.001-0.012 0-0.039 0.016-0.075 0.043-0.1l0-0c0.027-0.023 0.062-0.036 0.1-0.036s0.073 0.014 0.1 0.037l-0-0c0.026 0.025 0.043 0.061 0.043 0.1 0 0.004-0 0.008-0.001 0.013l0-0.001v0.777zM17.358 14.443v-1.47h-0.203l-0.267 0.778h-0.004l-0.269-0.778h-0.201v1.469h0.21v-0.894h0.004l0.206 0.632h0.105l0.207-0.632h0.004v0.894h0.21zM18.551 13.076c-0.032-0.036-0.073-0.064-0.119-0.080-0.043-0.015-0.093-0.023-0.144-0.023-0.003 0-0.006 0-0.008 0h-0.311v1.47h0.209v-0.574h0.108c0.066 0.003 0.13-0.011 0.189-0.040 0.048-0.027 0.087-0.065 0.114-0.111l0.001-0.001c0.024-0.039 0.041-0.083 0.048-0.128s0.011-0.1 0.011-0.154c0-0.005-0-0.009-0-0.014v0.001c0.002-0.070-0.005-0.141-0.020-0.21-0.015-0.053-0.042-0.098-0.077-0.135l0 0zM18.443 13.524c-0.001 0.028-0.008 0.054-0.020 0.078l0-0.001c-0.012 0.023-0.031 0.040-0.053 0.051l-0.001 0c-0.026 0.012-0.056 0.019-0.088 0.019-0.004 0-0.008-0-0.011-0l0.001 0h-0.096v-0.5h0.108c0.003-0 0.007-0 0.010-0 0.031 0 0.060 0.007 0.086 0.019l-0.001-0.001c0.022 0.013 0.039 0.031 0.049 0.053l0 0.001c0.012 0.026 0.018 0.054 0.018 0.082v0.098c0 0.034 0.002 0.070 0 0.101h-0.002zM19.543 12.973h-0.172l-0.324 1.47h0.209l0.061-0.316h0.285l0.062 0.316h0.209l-0.332-1.47zM19.35 13.927l0.103-0.533h0.004l0.102 0.533h-0.209zM20.896 13.858h-0.004l-0.316-0.885h-0.201v1.47h0.209v-0.884h0.004l0.32 0.884h0.197v-1.469h-0.209v0.885zM22.176 12.973l-0.169 0.585h-0.004l-0.168-0.585h-0.222l0.288 0.849v0.621h0.209v-0.621l0.288-0.848h-0.222zM13.867 14.857h0.101v0.283h0.068v-0.283h0.1v-0.058h-0.27v0.058zM14.715 14.799l-0.132 0.341h0.073l0.028-0.078h0.136l0.029 0.078h0.075l-0.136-0.341h-0.073zM14.704 15.006l0.046-0.127 0.046 0.127h-0.093zM15.554 15.015h0.079v0.044c-0.022 0.018-0.050 0.029-0.081 0.029h-0c-0.001 0-0.003 0-0.005 0-0.027 0-0.052-0.013-0.068-0.033l-0-0c-0.016-0.023-0.025-0.051-0.025-0.081 0-0.003 0-0.005 0-0.008l-0 0c0-0.076 0.033-0.114 0.098-0.114 0.002-0 0.005-0 0.007-0 0.034 0 0.062 0.023 0.070 0.054l0 0.001 0.067-0.013c-0.014-0.067-0.063-0.1-0.145-0.1-0.001-0-0.003-0-0.005-0-0.044 0-0.084 0.017-0.115 0.044l0-0c-0.031 0.030-0.050 0.072-0.050 0.118 0 0.004 0 0.009 0.001 0.013l-0-0.001c-0 0.002-0 0.005-0 0.008 0 0.046 0.017 0.088 0.044 0.12l-0-0c0.030 0.031 0.072 0.050 0.119 0.050 0.004 0 0.008-0 0.011-0l-0.001 0c0.002 0 0.004 0 0.006 0 0.054 0 0.102-0.021 0.139-0.054l-0 0v-0.134h-0.148v0.058zM16.41 14.799h-0.069v0.341h0.239v-0.058h-0.17v-0.283zM17.134 14.799h-0.069v0.341h0.069v-0.341zM17.842 15.027l-0.14-0.228h-0.067v0.341h0.064v-0.223l0.137 0.223h0.069v-0.341h-0.063v0.228zM18.483 14.99h0.17v-0.058h-0.17v-0.075h0.183v-0.058h-0.252v0.341h0.259v-0.058h-0.19v-0.092zM20.035 14.934h-0.134v-0.134h-0.068v0.341h0.068v-0.149h0.134v0.149h0.069v-0.341h-0.069v0.135zM20.678 14.99h0.171v-0.058h-0.171v-0.075h0.183v-0.058h-0.252v0.341h0.259v-0.058h-0.19v-0.092zM21.552 14.991c0.060-0.009 0.090-0.041 0.090-0.095 0-0.003 0.001-0.006 0.001-0.010 0-0.027-0.013-0.051-0.034-0.066l-0-0c-0.025-0.013-0.055-0.021-0.087-0.021-0.005 0-0.009 0-0.014 0.001l0.001-0h-0.145v0.341h0.069v-0.143h0.013c0.002-0 0.004-0 0.005-0 0.013 0 0.026 0.003 0.038 0.008l-0.001-0c0.010 0.006 0.018 0.015 0.024 0.025l0.074 0.108h0.082l-0.042-0.067c-0.019-0.033-0.044-0.061-0.075-0.081l-0.001-0.001zM21.482 14.943h-0.051v-0.086h0.054c0.004-0 0.009-0.001 0.014-0.001 0.020 0 0.039 0.003 0.056 0.009l-0.001-0c0.009 0.008 0.015 0.020 0.015 0.034 0 0.008-0.002 0.015-0.005 0.021l0-0c-0.003 0.006-0.008 0.011-0.013 0.015l-0 0c-0.017 0.005-0.037 0.009-0.057 0.009-0.004 0-0.009-0-0.013-0l0.001 0zM22.21 14.99h0.17v-0.058h-0.17v-0.075h0.183v-0.058h-0.253v0.341h0.259v-0.058h-0.19v-0.092z"></path>
</symbol>
<symbol id="icon-Clientsixth" viewBox="0 0 64 32">
<path fill="#afb1b8" style="fill: var(--color2, #afb1b8)" d="M18.291 9.249c-0.077-0.11-0.123-0.247-0.123-0.395 0-0.015 0-0.031 0.002-0.046l-0 0.002v-0.636c0-0.195 0.041-0.343 0.121-0.445s0.219-0.152 0.416-0.151c0.185 0 0.316 0.043 0.393 0.13 0.084 0.11 0.126 0.245 0.116 0.381v0.149h-0.33v-0.151c0-0.006 0-0.013 0-0.020 0-0.045-0.004-0.090-0.010-0.133l0.001 0.005c-0.005-0.035-0.022-0.066-0.047-0.088l-0-0c-0.029-0.022-0.066-0.035-0.106-0.035-0.005 0-0.010 0-0.015 0.001l0.001-0c-0.004-0-0.009-0-0.014-0-0.042 0-0.081 0.014-0.113 0.037l0-0c-0.028 0.025-0.047 0.058-0.054 0.096l-0 0.001c-0.010 0.052-0.014 0.105-0.013 0.157v0.772c-0.001 0.009-0.001 0.019-0.001 0.030 0 0.068 0.016 0.133 0.044 0.19l-0.001-0.002c0.017 0.023 0.039 0.041 0.065 0.052l0.001 0c0.019 0.009 0.042 0.014 0.066 0.014 0.007 0 0.014-0 0.020-0.001l-0.001 0c0.004 0 0.009 0.001 0.014 0.001 0.039 0 0.075-0.013 0.104-0.036l-0 0c0.026-0.024 0.044-0.057 0.049-0.093l0-0.001c0.008-0.051 0.011-0.103 0.010-0.155v-0.157h0.33v0.143c0.001 0.012 0.001 0.025 0.001 0.039 0 0.135-0.043 0.261-0.117 0.363l0.001-0.002c-0.076 0.095-0.205 0.142-0.395 0.142s-0.334-0.050-0.415-0.155zM19.666 9.255c-0.083-0.099-0.125-0.243-0.125-0.434v-0.669c0-0.189 0.042-0.332 0.125-0.429s0.223-0.146 0.418-0.145c0.194 0 0.333 0.048 0.416 0.145s0.126 0.24 0.126 0.429v0.669c0 0.189-0.043 0.334-0.127 0.434s-0.223 0.149-0.415 0.149c-0.192 0-0.334-0.050-0.418-0.149zM20.238 9.095c0.030-0.062 0.044-0.13 0.040-0.198v-0.82c0-0.007 0.001-0.014 0.001-0.022 0-0.063-0.015-0.122-0.041-0.174l0.001 0.002c-0.017-0.023-0.040-0.042-0.066-0.053l-0.001-0c-0.019-0.008-0.041-0.013-0.064-0.013-0.008 0-0.016 0.001-0.024 0.002l0.001-0c-0.007-0.001-0.015-0.002-0.022-0.002-0.023 0-0.046 0.005-0.066 0.013l0.001-0c-0.028 0.012-0.050 0.030-0.067 0.053l-0 0c-0.030 0.060-0.044 0.127-0.040 0.194v0.823c-0.004 0.068 0.009 0.136 0.040 0.198 0.019 0.021 0.042 0.037 0.068 0.049l0.001 0.001c0.025 0.011 0.054 0.017 0.085 0.017s0.060-0.006 0.086-0.018l-0.001 0.001c0.027-0.012 0.050-0.028 0.069-0.049l0-0v-0.004zM21.024 7.597h0.356l0.267 1.235 0.273-1.235h0.346l0.035 1.783h-0.256l-0.027-1.239-0.264 1.239h-0.205l-0.273-1.243-0.025 1.243h-0.258l0.032-1.782zM22.7 7.597h0.554c0.319 0 0.479 0.169 0.479 0.506 0 0.323-0.168 0.484-0.504 0.484h-0.189v0.792h-0.342l0.002-1.782zM23.173 8.359c0.034 0.004 0.068 0.001 0.1-0.009s0.062-0.026 0.087-0.048c0.039-0.060 0.057-0.131 0.049-0.201 0-0.006 0-0.012 0-0.019 0-0.051-0.006-0.1-0.018-0.147l0.001 0.004c-0.005-0.019-0.014-0.035-0.025-0.049l0 0c-0.012-0.015-0.026-0.027-0.043-0.035l-0.001-0c-0.039-0.018-0.085-0.029-0.134-0.029-0.006 0-0.013 0-0.019 0.001l0.001-0h-0.133v0.532h0.133zM24.225 7.597h0.367l0.377 1.783h-0.319l-0.074-0.411h-0.327l-0.077 0.411h-0.323l0.377-1.782zM24.539 8.762l-0.128-0.748-0.128 0.748h0.256zM25.273 7.597h0.239l0.458 1.017v-1.017h0.284v1.782h-0.228l-0.461-1.062v1.062h-0.293l0.001-1.782zM26.919 8.7l-0.381-1.1h0.321l0.233 0.707 0.218-0.707h0.314l-0.376 1.1v0.68h-0.328v-0.68zM18.819 10.159v0.093h-0.279v0.724h-0.117v-0.724h-0.28v-0.093h0.676zM19.694 10.976h-0.090c-0.001 0-0.002 0-0.003 0-0.009 0-0.017-0.003-0.023-0.008l0 0c-0.007-0.005-0.012-0.011-0.015-0.018l-0-0-0.081-0.194h-0.387l-0.081 0.194c-0.002 0.009-0.007 0.016-0.012 0.022l0-0c-0.006 0.005-0.015 0.008-0.023 0.008-0.001 0-0.001-0-0.002-0h-0.090l0.342-0.817h0.119l0.346 0.814zM19.127 10.673h0.323l-0.137-0.333c-0.009-0.021-0.017-0.046-0.024-0.072l-0.001-0.004-0.013 0.043-0.012 0.034-0.135 0.332zM20.283 10.896c0.021 0.001 0.043 0.001 0.064 0 0.018-0.002 0.037-0.005 0.055-0.010 0.019-0.005 0.036-0.010 0.052-0.016l-0.003 0.001c0.015-0.006 0.030-0.013 0.046-0.020v-0.184h-0.137c-0 0-0.001 0-0.002 0-0.007 0-0.012-0.002-0.017-0.006l0 0c-0.004-0.003-0.007-0.008-0.007-0.014 0-0 0-0.001 0-0.001v0-0.063h0.265v0.313c-0.041 0.028-0.089 0.051-0.141 0.066l-0.004 0.001c-0.024 0.007-0.053 0.013-0.083 0.017l-0.003 0c-0.030 0.003-0.064 0.005-0.099 0.005-0 0-0.001 0-0.001 0h0c-0.001 0-0.003 0-0.004 0-0.061 0-0.118-0.011-0.172-0.032l0.003 0.001c-0.053-0.020-0.098-0.049-0.137-0.086l0 0c-0.037-0.036-0.067-0.079-0.087-0.127l-0.001-0.003c-0.020-0.049-0.032-0.105-0.032-0.164 0-0.002 0-0.004 0-0.006v0c-0-0.002-0-0.003-0-0.005 0-0.060 0.011-0.117 0.032-0.169l-0.001 0.003c0.020-0.049 0.050-0.093 0.088-0.13s0.086-0.066 0.137-0.085c0.058-0.021 0.121-0.031 0.183-0.030 0.032 0 0.064 0.002 0.095 0.007 0.028 0.004 0.055 0.011 0.081 0.021 0.024 0.009 0.047 0.019 0.068 0.032s0.041 0.027 0.060 0.043l-0.033 0.051c-0.003 0.005-0.006 0.008-0.011 0.011l-0 0c-0.004 0.003-0.010 0.004-0.016 0.004h-0c-0.008-0-0.015-0.003-0.021-0.007l0 0c-0.013-0.007-0.024-0.013-0.035-0.020l0.002 0.001c-0.013-0.008-0.028-0.015-0.044-0.021l-0.002-0.001c-0.018-0.007-0.039-0.013-0.060-0.018l-0.003-0c-0.025-0.005-0.053-0.007-0.082-0.007-0.002 0-0.003 0-0.005 0h0c-0.001 0-0.003-0-0.004-0-0.046 0-0.090 0.008-0.13 0.023l0.003-0.001c-0.038 0.014-0.073 0.036-0.1 0.065-0.028 0.029-0.050 0.064-0.064 0.102-0.015 0.041-0.023 0.087-0.023 0.136s0.008 0.096 0.024 0.139l-0.001-0.003c0.015 0.038 0.038 0.074 0.068 0.103 0.028 0.028 0.062 0.050 0.1 0.065 0.044 0.014 0.090 0.020 0.135 0.016zM21.373 10.883h0.373v0.093h-0.487v-0.818h0.117l-0.003 0.724zM22.134 10.976h-0.117v-0.817h0.117v0.818zM22.569 10.163c0.007 0.004 0.013 0.009 0.018 0.015l0 0 0.5 0.616c-0-0.004-0-0.009-0-0.015s0-0.010 0.001-0.015l-0 0.001v-0.609h0.102v0.821h-0.059c-0.001 0-0.003 0-0.004 0-0.008 0-0.015-0.002-0.022-0.005l0 0c-0.007-0.004-0.013-0.009-0.018-0.015l-0-0-0.499-0.615v0.636h-0.098v-0.817h0.061c0.007 0 0.013 0.001 0.019 0.004zM24.049 10.159v0.090h-0.414v0.27h0.336v0.087h-0.336v0.279h0.414v0.090h-0.535v-0.816h0.535zM11.798 5.11l5.191 1.395v4.89l-5.191-1.395v-4.891zM11.465 4.693v5.545l5.857 1.575v-5.545l-5.857-1.575z"></path>
<path fill="#afb1b8" style="fill: var(--color2, #afb1b8)" d="M14.604 14.387l-5.857-1.576v-5.545l5.857 1.575v5.545z"></path>
<path fill="#afb1b8" style="fill: var(--color2, #afb1b8)" d="M11.562 5.047l5.124 1.378-2.179 2.063-5.124-1.379 2.18-2.063zM11.465 4.693l-2.719 2.573 5.857 1.575 2.718-2.573-5.857-1.575zM14.934 14.075l2.388-2.261-2.388-0.643v2.904z"></path>
</symbol>
<symbol id="icon-Clientthird" viewBox="0 0 64 32">
<path fill="#afb1b8" style="fill: var(--color2, #afb1b8)" d="M15.22 14.036c0.007 0 0.013 0.003 0.017 0.007v0l0.044 0.046c-0.034 0.037-0.076 0.067-0.124 0.087-0.055 0.022-0.115 0.033-0.175 0.031-0.003 0-0.006 0-0.009 0-0.056 0-0.11-0.011-0.159-0.030l0.003 0.001c-0.095-0.038-0.169-0.114-0.203-0.208l-0.001-0.002c-0.018-0.047-0.028-0.101-0.028-0.158 0-0.002 0-0.004 0-0.006v0c-0-0.002-0-0.004-0-0.007 0-0.057 0.011-0.111 0.031-0.161l-0.001 0.003c0.019-0.047 0.048-0.091 0.085-0.127s0.082-0.064 0.132-0.083c0.054-0.020 0.112-0.030 0.169-0.029 0.054-0.001 0.108 0.008 0.158 0.027 0.043 0.018 0.083 0.043 0.118 0.074l-0.037 0.049c-0.003 0.004-0.006 0.007-0.009 0.009l-0 0c-0.004 0.002-0.008 0.004-0.013 0.004-0.001 0-0.001-0-0.002-0h0c-0.006-0-0.011-0.002-0.016-0.005l0 0-0.020-0.013-0.028-0.017c-0.025-0.013-0.054-0.023-0.085-0.029l-0.002-0c-0.018-0.003-0.039-0.005-0.060-0.005-0.002 0-0.004 0-0.006 0h0c-0.001-0-0.003-0-0.004-0-0.042 0-0.083 0.008-0.12 0.023l0.002-0.001c-0.037 0.015-0.069 0.036-0.096 0.062v0c-0.027 0.028-0.048 0.062-0.062 0.098-0.016 0.042-0.023 0.086-0.023 0.13-0.001 0.045 0.007 0.090 0.023 0.132 0.013 0.036 0.034 0.069 0.061 0.098 0.025 0.027 0.056 0.047 0.091 0.061 0.036 0.014 0.074 0.021 0.113 0.021 0.022 0 0.045-0.001 0.067-0.004 0.036-0.004 0.071-0.016 0.101-0.035 0.016-0.010 0.030-0.020 0.044-0.032 0.005-0.005 0.013-0.008 0.021-0.009h0zM16.488 13.805c0.001 0.055-0.009 0.111-0.030 0.163-0.019 0.049-0.047 0.091-0.082 0.126l-0 0c-0.036 0.035-0.079 0.063-0.127 0.082l-0.003 0.001c-0.050 0.019-0.107 0.029-0.167 0.029s-0.117-0.011-0.17-0.030l0.003 0.001c-0.050-0.020-0.093-0.048-0.129-0.083l0 0c-0.035-0.035-0.063-0.078-0.082-0.125l-0.001-0.002c-0.019-0.048-0.030-0.104-0.030-0.163s0.011-0.114 0.031-0.166l-0.001 0.003c0.019-0.048 0.047-0.091 0.083-0.128 0.036-0.034 0.079-0.061 0.126-0.079l0.003-0.001c0.050-0.019 0.107-0.030 0.167-0.030s0.117 0.011 0.17 0.031l-0.003-0.001c0.049 0.019 0.093 0.047 0.13 0.083s0.064 0.079 0.083 0.126c0.020 0.052 0.030 0.108 0.030 0.164zM16.373 13.805c0-0.002 0-0.004 0-0.007 0-0.044-0.008-0.087-0.022-0.126l0.001 0.003c-0.025-0.073-0.080-0.131-0.15-0.159l-0.002-0.001c-0.036-0.014-0.078-0.021-0.121-0.021s-0.085 0.008-0.124 0.022l0.002-0.001c-0.072 0.028-0.127 0.086-0.151 0.158l-0.001 0.002c-0.028 0.085-0.028 0.176 0 0.261 0.025 0.073 0.080 0.131 0.15 0.158l0.002 0.001c0.078 0.028 0.164 0.028 0.243 0 0.035-0.013 0.067-0.034 0.093-0.061 0.026-0.029 0.046-0.062 0.059-0.098 0.015-0.042 0.022-0.086 0.021-0.131zM17.353 13.942l0.012 0.029c0.004-0.010 0.008-0.020 0.013-0.029 0.005-0.012 0.010-0.021 0.015-0.030l-0.001 0.001 0.28-0.486c0.006-0.009 0.011-0.014 0.016-0.015s0.012-0.003 0.019-0.003c0.001 0 0.003 0 0.004 0h0.083v0.79h-0.098v-0.605c-0-0.004-0-0.009-0-0.014s0-0.010 0-0.014l-0 0.001-0.282 0.493c-0.004 0.008-0.009 0.014-0.016 0.018l-0 0c-0.007 0.004-0.015 0.006-0.023 0.006-0 0-0 0-0.001 0h-0.016c-0.009 0-0.017-0.002-0.024-0.006s-0.013-0.010-0.017-0.018l-0-0-0.29-0.496v0.634h-0.095v-0.788h0.083c0.001-0 0.003-0 0.004-0 0.007 0 0.013 0.001 0.020 0.003l-0-0c0.007 0.003 0.012 0.008 0.015 0.015l0 0 0.287 0.486c0.005 0.008 0.010 0.017 0.014 0.027l0 0.001zM18.408 13.903v0.296h-0.11v-0.788h0.245c0.003-0 0.006-0 0.009-0 0.045 0 0.089 0.006 0.131 0.018l-0.003-0.001c0.036 0.010 0.068 0.026 0.097 0.049 0.024 0.021 0.043 0.048 0.055 0.077 0.013 0.032 0.019 0.067 0.019 0.101s-0.006 0.069-0.020 0.101c-0.014 0.031-0.034 0.058-0.059 0.079l-0 0c-0.027 0.023-0.060 0.041-0.095 0.052l-0.002 0.001c-0.043 0.013-0.087 0.019-0.132 0.018l-0.133-0.002zM18.408 13.818h0.133c0.029 0 0.058-0.004 0.085-0.012 0.024-0.008 0.044-0.019 0.061-0.034l-0 0c0.016-0.014 0.029-0.031 0.037-0.051l0-0.001c0.008-0.019 0.013-0.041 0.013-0.065 0-0.001 0-0.001 0-0.002v0c0-0.002 0-0.005 0-0.008 0-0.020-0.004-0.040-0.012-0.057l0 0.001c-0.009-0.021-0.022-0.039-0.038-0.054l-0-0c-0.036-0.027-0.082-0.043-0.131-0.043-0.006 0-0.012 0-0.017 0.001l0.001-0h-0.133v0.325zM19.883 14.2h-0.087c-0.001 0-0.001 0-0.002 0-0.008 0-0.016-0.003-0.023-0.007l0 0c-0.006-0.005-0.011-0.011-0.014-0.018l-0-0-0.075-0.191h-0.375l-0.077 0.191c-0.003 0.007-0.008 0.013-0.014 0.018l-0 0c-0.006 0.005-0.015 0.008-0.023 0.008-0 0-0.001 0-0.001-0h-0.087l0.329-0.79h0.114l0.334 0.79zM19.34 13.906h0.309l-0.131-0.322c-0.009-0.020-0.017-0.045-0.024-0.070l-0.001-0.004-0.013 0.041c-0.004 0.014-0.008 0.025-0.013 0.036l0.001-0.003-0.13 0.321zM20.357 13.413c0.007 0.004 0.012 0.009 0.017 0.014l0.48 0.595v-0.613h0.098v0.79h-0.055c-0 0-0.001 0-0.001 0-0.008 0-0.015-0.002-0.021-0.005l0 0c-0.007-0.004-0.013-0.009-0.017-0.015l-0-0-0.48-0.595c0 0.009 0 0.018 0 0.027v0.587h-0.098v-0.79h0.058c0.007 0 0.013 0.001 0.020 0.004zM21.761 13.885v0.314h-0.11v-0.314l-0.303-0.476h0.098c0.001-0 0.001-0 0.002-0 0.008 0 0.016 0.003 0.022 0.007l-0-0c0.006 0.005 0.011 0.011 0.015 0.018l0 0 0.19 0.307c0.008 0.013 0.014 0.025 0.020 0.037s0.010 0.022 0.014 0.033l0.014-0.034c0.005-0.012 0.012-0.025 0.019-0.036l0.187-0.309c0.004-0.006 0.009-0.012 0.014-0.017l0-0c0.006-0.005 0.013-0.008 0.022-0.008 0.001 0 0.001 0 0.002 0h0.099l-0.304 0.478zM17.298 12.084c0.048 0.006 0.096 0.011 0.145 0.015 0.74-0.316 1.367-0.832 1.801-1.485s0.656-1.413 0.64-2.186l-0.816-0.777c0.054 0.256 0.085 0.551 0.085 0.852 0 0.578-0.114 1.129-0.32 1.632l0.010-0.029c-0.313 0.783-0.848 1.468-1.545 1.978z"></path>
<path fill="#afb1b8" style="fill: var(--color2, #afb1b8)" d="M17.007 12.048l0.022 0.004c0.746-0.508 1.314-1.217 1.632-2.036 0.18-0.448 0.284-0.968 0.284-1.512 0-0.372-0.049-0.732-0.14-1.075l0.007 0.029-1.162-1.107c0.364 0.687 0.577 1.502 0.577 2.366 0 0.201-0.012 0.4-0.034 0.595l0.002-0.024c-0.113 1.009-0.525 1.966-1.188 2.76zM20.948 9.341c-0.197 0.849-0.677 1.614-1.367 2.183-0.191 0.159-0.403 0.306-0.628 0.433l-0.021 0.011c0.585-0.166 1.091-0.446 1.515-0.817l-0.005 0.004c0.42-0.367 0.753-0.824 0.969-1.341l0.009-0.024-0.471-0.449z"></path>
<path fill="#afb1b8" style="fill: var(--color2, #afb1b8)" d="M20.764 9.216l-0.671-0.639c-0.015 0.768-0.248 1.48-0.639 2.078l0.009-0.015c-0.4 0.622-0.967 1.13-1.642 1.473h0.003c0.151 0 0.301-0.009 0.45-0.026 0.645-0.253 1.19-0.641 1.62-1.132l0.004-0.005c0.417-0.476 0.72-1.062 0.861-1.708l0.005-0.026zM17.104 5.884l-0.801-0.764c-0.716 0.263-1.331 0.727-1.766 1.329s-0.669 1.316-0.671 2.046c0.003 0.808 0.288 1.591 0.811 2.227s1.253 1.087 2.076 1.283c0.734-0.852 1.164-1.905 1.227-3.006s-0.244-2.192-0.877-3.116zM22.613 9.098c-0.003-0.958-0.404-1.877-1.115-2.554s-1.675-1.060-2.681-1.062c-0.465-0-0.926 0.081-1.359 0.241l4.902 4.67c0.16-0.383 0.253-0.828 0.253-1.294v-0z"></path>
</symbol>
<symbol id="icon-envelope" viewBox="0 0 64 32">
<path fill="#757575" style="fill: var(--color1, #757575)" d="M3.093 0h-2.773c-0.176 0-0.32 0.144-0.32 0.32v1.92c0 0.176 0.144 0.32 0.32 0.32h2.773c0.176 0 0.32-0.144 0.32-0.32v-1.92c0-0.176-0.144-0.32-0.32-0.32zM3.093 0.213c0.014 0 0.028 0.003 0.041 0.008l-1.428 1.237-1.428-1.237c0.012-0.005 0.026-0.008 0.041-0.008v0h2.773zM3.093 2.347h-2.773c-0.059 0-0.107-0.048-0.107-0.107v0-1.793l1.423 1.234c0.019 0.016 0.043 0.026 0.070 0.026s0.051-0.010 0.070-0.026l-0 0 1.423-1.234v1.793c0 0.059-0.048 0.107-0.107 0.107v0z"></path>
</symbol>
</defs>
</svg>
