<!-- Generated by IcoMoon.io -->
<svg version="1.1" xmlns="http://www.w3.org/2000/svg" width="64" height="32" viewBox="0 0 64 32">
<title>in</title>
<path fill="#fff" d="M9.387 4.693c0 0.002 0 0.004 0 0.006 0 1.294-0.525 2.466-1.375 3.313l-0 0c-0.847 0.849-2.019 1.375-3.313 1.375-0.002 0-0.004 0-0.006 0h0c-0.002 0-0.004 0-0.006 0-1.294 0-2.466-0.525-3.313-1.375l-0-0c-0.849-0.847-1.375-2.019-1.375-3.313 0-0.002 0-0.004 0-0.006v0c0-0.002 0-0.004 0-0.006 0-1.294 0.525-2.466 1.375-3.313l0-0c0.847-0.849 2.019-1.375 3.313-1.375 0.002 0 0.004 0 0.006 0h-0c0.002 0 0.004 0 0.006 0 1.294 0 2.466 0.525 3.313 1.375l0 0c0.849 0.847 1.375 2.019 1.375 3.313 0 0.002 0 0.004 0 0.006v-0z"></path>
<path fill="#afb1b8" d="M6.826 6.827h0.001v-1.565c0-0.765-0.165-1.355-1.060-1.355-0.43 0-0.719 0.236-0.837 0.46h-0.012v-0.388h-0.849v2.848h0.884v-1.41c0-0.371 0.070-0.731 0.53-0.731 0.453 0 0.46 0.424 0.46 0.754v1.387h0.883zM2.63 3.978h0.885v2.848h-0.885v-2.848zM3.072 2.56c-0.283 0-0.512 0.229-0.512 0.512v0c0 0.283 0.23 0.517 0.512 0.517s0.512-0.234 0.512-0.517c-0-0.283-0.229-0.512-0.512-0.512h-0z"></path>
</svg>
