<svg aria-hidden="true" style="position:absolute;width:0;height:0" xmlns="http://www.w3.org/2000/svg" overflow="hidden"><defs><symbol id="icon-fb" viewBox="0 0 64 32"><path fill="var(--color1, #fff)" d="M9.387 4.693v.006a4.662 4.662 0 01-1.375 3.313 4.666 4.666 0 01-3.313 1.375h-.012a4.662 4.662 0 01-3.313-1.375A4.666 4.666 0 01-.001 4.699v-.006-.006c0-1.294.525-2.466 1.375-3.313A4.666 4.666 0 014.687-.001h.012c1.294 0 2.466.525 3.313 1.375a4.666 4.666 0 011.375 3.313v.006z"/><path fill="var(--color2, #afb1b8)" d="M5.404 3.268h.39V2.59a4.88 4.88 0 00-.548-.03h-.021.001c-.562 0-.946.353-.946 1.003v.597h-.62v.758h.62v1.908h.76V4.918h.595l.094-.758H5.04v-.523c0-.219.059-.369.365-.369z"/></symbol><symbol id="icon-in" viewBox="0 0 64 32"><path fill="var(--color1, #fff)" d="M9.387 4.693v.006a4.662 4.662 0 01-1.375 3.313 4.666 4.666 0 01-3.313 1.375h-.012a4.662 4.662 0 01-3.313-1.375A4.666 4.666 0 01-.001 4.699v-.006-.006c0-1.294.525-2.466 1.375-3.313A4.666 4.666 0 014.687-.001h.012c1.294 0 2.466.525 3.313 1.375a4.666 4.666 0 011.375 3.313v.006z"/><path fill="var(--color2, #afb1b8)" d="M6.826 6.827h.001V5.262c0-.765-.165-1.355-1.06-1.355-.43 0-.719.236-.837.46h-.012v-.388h-.849v2.848h.884v-1.41c0-.371.07-.731.53-.731.453 0 .46.424.46.754v1.387h.883zM2.63 3.978h.885v2.848H2.63V3.978zm.442-1.418a.512.512 0 00-.512.512c0 .283.23.517.512.517s.512-.234.512-.517a.512.512 0 00-.512-.512z"/></symbol><symbol id="icon-insta" viewBox="0 0 64 32"><path fill="var(--color1, #fff)" d="M9.387 4.693v.006a4.662 4.662 0 01-1.375 3.313 4.666 4.666 0 01-3.313 1.375h-.012a4.662 4.662 0 01-3.313-1.375A4.666 4.666 0 01-.001 4.699v-.006-.006c0-1.294.525-2.466 1.375-3.313A4.666 4.666 0 014.687-.001h.012c1.294 0 2.466.525 3.313 1.375a4.666 4.666 0 011.375 3.313v.006z"/><path fill="var(--color2, #afb1b8)" d="M6.822 3.814a1.553 1.553 0 00-.099-.518 1.056 1.056 0 00-.247-.378 1.061 1.061 0 00-.37-.244l-.007-.002a1.58 1.58 0 00-.518-.099c-.228-.011-.301-.013-.88-.013s-.652.003-.879.013a1.58 1.58 0 00-.518.099c-.148.057-.274.14-.378.246-.106.104-.189.23-.243.37l-.002.007a1.553 1.553 0 00-.099.518c-.011.228-.013.301-.013.88s.003.652.013.879c.01.227.047.383.099.518.057.148.141.274.246.378.107.108.236.192.378.246.136.053.291.089.518.099.228.01.3.013.879.013s.652-.003.879-.013c.227-.01.383-.046.518-.099.288-.113.511-.337.622-.617l.003-.007a1.58 1.58 0 00.099-.518c.01-.228.012-.3.012-.879s-.001-.652-.011-.879zm-.384 1.742a1.174 1.174 0 01-.073.396.715.715 0 01-.401.404l-.005.002a1.174 1.174 0 01-.396.073c-.225.01-.292.013-.862.013s-.638-.003-.862-.013a1.174 1.174 0 01-.396-.073.662.662 0 01-.245-.159.67.67 0 01-.158-.24l-.002-.005a1.174 1.174 0 01-.073-.396c-.01-.225-.013-.293-.013-.862s.003-.638.013-.862c.009-.208.044-.321.073-.396a.652.652 0 01.16-.245.665.665 0 01.241-.158l.005-.002c.075-.029.188-.064.396-.073.225-.01.293-.012.862-.012s.638.002.862.012c.208.009.321.044.396.073a.653.653 0 01.245.159.661.661 0 01.159.245c.029.075.064.188.073.396.01.225.013.292.013.862s-.003.636-.013.861z"/><path fill="var(--color2, #afb1b8)" d="M4.701 3.598a1.096 1.096 0 101.096 1.096c0-.605-.491-1.096-1.096-1.096zm0 1.807a.71.71 0 110-1.422.71.71 0 110 1.422zm1.396-1.851a.256.256 0 01-.512 0 .256.256 0 01.512 0z"/></symbol><symbol id="icon-twitter" viewBox="0 0 64 32"><path fill="var(--color1, #fff)" d="M9.387 4.693v.006a4.662 4.662 0 01-1.375 3.313 4.666 4.666 0 01-3.313 1.375h-.012a4.662 4.662 0 01-3.313-1.375A4.666 4.666 0 01-.001 4.699v-.006-.006c0-1.294.525-2.466 1.375-3.313A4.666 4.666 0 014.687-.001h.012c1.294 0 2.466.525 3.313 1.375a4.666 4.666 0 011.375 3.313v.006z"/><path fill="var(--color2, #afb1b8)" d="M6.827 3.37a1.777 1.777 0 01-.495.137l-.009.001a.874.874 0 00.383-.477l.002-.006c-.16.096-.346.17-.543.21l-.011.002a.874.874 0 00-1.513.597v.001a.92.92 0 00.02.199 2.474 2.474 0 01-1.803-.915.876.876 0 00.269 1.169.85.85 0 01-.399-.11l.004.002v.01a.88.88 0 00.695.859l.006.001a.864.864 0 01-.222.029h-.022a.74.74 0 01-.157-.016l.005.001a.883.883 0 00.817.609 1.748 1.748 0 01-1.082.373h-.014a1.56 1.56 0 01-.206-.013l.008.001a2.44 2.44 0 001.334.393h.008c1.61 0 2.49-1.333 2.49-2.489 0-.038-.001-.076-.003-.113.173-.125.319-.275.434-.447l.004-.006z"/></symbol></defs></svg>