<svg aria-hidden="true" style="position: absolute; width: 0; height: 0; overflow: hidden;" version="1.1" xmlns="http://www.w3.org/2000/svg" xmlns:xlink="http://www.w3.org/1999/xlink">
<defs>
<symbol id="icon-fb" viewBox="0 0 64 32">
<path fill="#fff" style="fill: var(--color1, #fff)" d="M9.387 4.693c0 0.002 0 0.004 0 0.006 0 1.294-0.525 2.466-1.375 3.313l-0 0c-0.847 0.849-2.019 1.375-3.313 1.375-0.002 0-0.004 0-0.006 0h0c-0.002 0-0.004 0-0.006 0-1.294 0-2.466-0.525-3.313-1.375l-0-0c-0.849-0.847-1.375-2.019-1.375-3.313 0-0.002 0-0.004 0-0.006v0c0-0.002 0-0.004 0-0.006 0-1.294 0.525-2.466 1.375-3.313l0-0c0.847-0.849 2.019-1.375 3.313-1.375 0.002 0 0.004 0 0.006 0h-0c0.002 0 0.004 0 0.006 0 1.294 0 2.466 0.525 3.313 1.375l0 0c0.849 0.847 1.375 2.019 1.375 3.313 0 0.002 0 0.004 0 0.006v-0z"></path>
<path fill="#afb1b8" style="fill: var(--color2, #afb1b8)" d="M5.404 3.268h0.39v-0.678c-0.164-0.019-0.355-0.030-0.548-0.030-0.007 0-0.014 0-0.021 0h0.001c-0.562 0-0.946 0.353-0.946 1.003v0.597h-0.62v0.758h0.62v1.908h0.76v-1.908h0.595l0.094-0.758h-0.689v-0.523c0-0.219 0.059-0.369 0.365-0.369z"></path>
</symbol>
<symbol id="icon-in" viewBox="0 0 64 32">
<path fill="#fff" style="fill: var(--color1, #fff)" d="M9.387 4.693c0 0.002 0 0.004 0 0.006 0 1.294-0.525 2.466-1.375 3.313l-0 0c-0.847 0.849-2.019 1.375-3.313 1.375-0.002 0-0.004 0-0.006 0h0c-0.002 0-0.004 0-0.006 0-1.294 0-2.466-0.525-3.313-1.375l-0-0c-0.849-0.847-1.375-2.019-1.375-3.313 0-0.002 0-0.004 0-0.006v0c0-0.002 0-0.004 0-0.006 0-1.294 0.525-2.466 1.375-3.313l0-0c0.847-0.849 2.019-1.375 3.313-1.375 0.002 0 0.004 0 0.006 0h-0c0.002 0 0.004 0 0.006 0 1.294 0 2.466 0.525 3.313 1.375l0 0c0.849 0.847 1.375 2.019 1.375 3.313 0 0.002 0 0.004 0 0.006v-0z"></path>
<path fill="#afb1b8" style="fill: var(--color2, #afb1b8)" d="M6.826 6.827h0.001v-1.565c0-0.765-0.165-1.355-1.060-1.355-0.43 0-0.719 0.236-0.837 0.46h-0.012v-0.388h-0.849v2.848h0.884v-1.41c0-0.371 0.070-0.731 0.53-0.731 0.453 0 0.46 0.424 0.46 0.754v1.387h0.883zM2.63 3.978h0.885v2.848h-0.885v-2.848zM3.072 2.56c-0.283 0-0.512 0.229-0.512 0.512v0c0 0.283 0.23 0.517 0.512 0.517s0.512-0.234 0.512-0.517c-0-0.283-0.229-0.512-0.512-0.512h-0z"></path>
</symbol>
<symbol id="icon-insta" viewBox="0 0 64 32">
<path fill="#fff" style="fill: var(--color1, #fff)" d="M9.387 4.693c0 0.002 0 0.004 0 0.006 0 1.294-0.525 2.466-1.375 3.313l-0 0c-0.847 0.849-2.019 1.375-3.313 1.375-0.002 0-0.004 0-0.006 0h0c-0.002 0-0.004 0-0.006 0-1.294 0-2.466-0.525-3.313-1.375l-0-0c-0.849-0.847-1.375-2.019-1.375-3.313 0-0.002 0-0.004 0-0.006v0c0-0.002 0-0.004 0-0.006 0-1.294 0.525-2.466 1.375-3.313l0-0c0.847-0.849 2.019-1.375 3.313-1.375 0.002 0 0.004 0 0.006 0h-0c0.002 0 0.004 0 0.006 0 1.294 0 2.466 0.525 3.313 1.375l0 0c0.849 0.847 1.375 2.019 1.375 3.313 0 0.002 0 0.004 0 0.006v-0z"></path>
<path fill="#afb1b8" style="fill: var(--color2, #afb1b8)" d="M6.822 3.814c-0.010-0.227-0.046-0.382-0.099-0.518-0.057-0.148-0.141-0.274-0.247-0.378l-0-0c-0.104-0.106-0.23-0.189-0.37-0.244l-0.007-0.002c-0.136-0.052-0.291-0.089-0.518-0.099-0.228-0.011-0.301-0.013-0.88-0.013s-0.652 0.003-0.879 0.013c-0.227 0.010-0.382 0.047-0.518 0.099-0.148 0.057-0.274 0.14-0.378 0.246l-0 0c-0.106 0.104-0.189 0.23-0.243 0.37l-0.002 0.007c-0.053 0.136-0.089 0.291-0.099 0.518-0.011 0.228-0.013 0.301-0.013 0.88s0.003 0.652 0.013 0.879c0.010 0.227 0.047 0.383 0.099 0.518 0.057 0.148 0.141 0.274 0.246 0.378l0 0c0.107 0.108 0.236 0.192 0.378 0.246 0.136 0.053 0.291 0.089 0.518 0.099 0.228 0.010 0.3 0.013 0.879 0.013s0.652-0.003 0.879-0.013c0.227-0.010 0.383-0.046 0.518-0.099 0.288-0.113 0.511-0.337 0.622-0.617l0.003-0.007c0.052-0.136 0.089-0.291 0.099-0.518 0.010-0.228 0.012-0.3 0.012-0.879s-0.001-0.652-0.011-0.879zM6.438 5.556c-0.009 0.208-0.044 0.321-0.073 0.396-0.074 0.187-0.219 0.332-0.401 0.404l-0.005 0.002c-0.075 0.029-0.188 0.064-0.396 0.073-0.225 0.010-0.292 0.013-0.862 0.013s-0.638-0.003-0.862-0.013c-0.208-0.009-0.321-0.044-0.396-0.073-0.096-0.036-0.178-0.090-0.245-0.159l-0-0c-0.069-0.067-0.123-0.149-0.158-0.24l-0.002-0.005c-0.029-0.075-0.064-0.188-0.073-0.396-0.010-0.225-0.013-0.293-0.013-0.862s0.003-0.638 0.013-0.862c0.009-0.208 0.044-0.321 0.073-0.396 0.036-0.096 0.090-0.178 0.16-0.245l0-0c0.067-0.069 0.149-0.123 0.241-0.158l0.005-0.002c0.075-0.029 0.188-0.064 0.396-0.073 0.225-0.010 0.293-0.012 0.862-0.012s0.638 0.002 0.862 0.012c0.208 0.009 0.321 0.044 0.396 0.073 0.092 0.034 0.177 0.088 0.245 0.159 0.071 0.069 0.125 0.153 0.159 0.245 0.029 0.075 0.064 0.188 0.073 0.396 0.010 0.225 0.013 0.292 0.013 0.862s-0.003 0.636-0.013 0.861z"></path>
<path fill="#afb1b8" style="fill: var(--color2, #afb1b8)" d="M4.701 3.598c-0 0-0 0-0 0-0.605 0-1.096 0.491-1.096 1.096s0.491 1.096 1.096 1.096c0.605 0 1.096-0.491 1.096-1.096 0-0 0-0 0-0v0c-0-0.605-0.491-1.096-1.096-1.096v0zM4.701 5.405c-0.393-0-0.711-0.318-0.711-0.711s0.318-0.711 0.711-0.711c0 0 0 0 0 0v0c0.393 0 0.711 0.318 0.711 0.711s-0.318 0.711-0.711 0.711v0zM6.097 3.554c0 0.141-0.115 0.256-0.256 0.256s-0.256-0.115-0.256-0.256v0c0-0.141 0.115-0.256 0.256-0.256s0.256 0.115 0.256 0.256v0z"></path>
</symbol>
<symbol id="icon-twitter" viewBox="0 0 64 32">
<path fill="#fff" style="fill: var(--color1, #fff)" d="M9.387 4.693c0 0.002 0 0.004 0 0.006 0 1.294-0.525 2.466-1.375 3.313l-0 0c-0.847 0.849-2.019 1.375-3.313 1.375-0.002 0-0.004 0-0.006 0h0c-0.002 0-0.004 0-0.006 0-1.294 0-2.466-0.525-3.313-1.375l-0-0c-0.849-0.847-1.375-2.019-1.375-3.313 0-0.002 0-0.004 0-0.006v0c0-0.002 0-0.004 0-0.006 0-1.294 0.525-2.466 1.375-3.313l0-0c0.847-0.849 2.019-1.375 3.313-1.375 0.002 0 0.004 0 0.006 0h-0c0.002 0 0.004 0 0.006 0 1.294 0 2.466 0.525 3.313 1.375l0 0c0.849 0.847 1.375 2.019 1.375 3.313 0 0.002 0 0.004 0 0.006v-0z"></path>
<path fill="#afb1b8" style="fill: var(--color2, #afb1b8)" d="M6.827 3.37c-0.147 0.066-0.317 0.114-0.495 0.137l-0.009 0.001c0.181-0.109 0.318-0.277 0.383-0.477l0.002-0.006c-0.16 0.096-0.346 0.17-0.543 0.21l-0.011 0.002c-0.16-0.171-0.387-0.277-0.639-0.277-0.483 0-0.874 0.392-0.874 0.874 0 0 0 0.001 0 0.001v-0c0 0.069 0.006 0.136 0.020 0.199-0.727-0.035-1.371-0.384-1.803-0.915-0.075 0.127-0.119 0.279-0.119 0.442v0c0 0.303 0.156 0.572 0.388 0.727-0.146-0.004-0.281-0.043-0.399-0.11l0.004 0.002v0.010c0 0.422 0.298 0.774 0.695 0.859l0.006 0.001c-0.067 0.018-0.143 0.029-0.222 0.029-0.003 0-0.005 0-0.008-0h0c-0.004 0-0.009 0-0.014 0-0.054 0-0.106-0.005-0.157-0.016l0.005 0.001c0.113 0.346 0.435 0.601 0.817 0.609-0.295 0.232-0.672 0.373-1.082 0.373-0.001 0-0.002 0-0.002 0h0c-0.003 0-0.007 0-0.012 0-0.070 0-0.138-0.004-0.206-0.013l0.008 0.001c0.377 0.246 0.838 0.393 1.334 0.393 0.003 0 0.006 0 0.008 0h-0c1.61 0 2.49-1.333 2.49-2.489 0-0.038-0.001-0.076-0.003-0.113 0.173-0.125 0.319-0.275 0.434-0.447l0.004-0.006z"></path>
</symbol>
</defs>
</svg>
